# xmcd
#
# Track frame offsets:
#	187
#	14832
#	28657
#	47885
#	62480
#	74102
#	90042
#	103372
#	117717
#	130700
#
# Disc length: 1954 seconds
#
# Revision: 0
# Processed by: cddbd v1.5.1PL0 Copyright (c) Steve Scherf et al.
# Submitted via: audiograbber 1.83.01
#
DISCID=9107a00a
DTITLE=Chris LeDoux - Whatcha Gonna Do With A Cowboy
DYEAR=1992
DGENRE=Country
TTITLE0=Call Of The Wild
TTITLE1=You Just Can't See Him From The Road
TTITLE2=Little Long-Haired Outlaw
TTITLE3=Making Ends Meet
TTITLE4=Watcha Gonna Do With A Cowboy (Duet With Garth Brooks)
TTITLE5=Hooked On An 8 Second Ride
TTITLE6=I'm Ready If You're Willing
TTITLE7=Look At You Girl
TTITLE8=Cadillac Ranch
TTITLE9=Western Skies
EXTD=YEAR: 1992
EXTT0=
EXTT1=
EXTT2=
EXTT3=
EXTT4=
EXTT5=
EXTT6=
EXTT7=
EXTT8=
EXTT9=
PLAYORDER=
